<svg height="54" viewBox="0 0 21 54" width="21" xmlns="http://www.w3.org/2000/svg"><path d="m16.97 37.23c1.6121-1.6382 3.53-4.231 3.53-7.2894a10.3937 10.3937 0 0 0 -2.9413-7.3013 9.8735 9.8735 0 0 0 -7.0175-3.0348h-.1117a9.8736 9.8736 0 0 0 -6.9881 3.0348 10.3939 10.3939 0 0 0 -2.9414 7.2953c0 3.0584 1.9 5.6513 3.4942 7.2954a8.6374 8.6374 0 0 1 2.0411 5.6984l.0057 1.0716h8.9473v-1.0539a8.63 8.63 0 0 1 1.9817-5.7161zm-3.97 15.77h-5v-1h5zm2-3h-9v-1h9zm0-3h-9v-1h9z" fill="#1d1d1f"/><path d="m0 1h21v53h-21z" fill="none"/></svg>