<svg id="Assets" xmlns="http://www.w3.org/2000/svg" width="37" height="54" viewBox="0 0 37 54"><path d="M19.2988,31.55a1.2555,1.2555,0,0,0-1.5879-.001L17,32.132l-2,1.64V38.96a1.0594,1.0594,0,0,0,1.06,1.0584H20.94A1.0594,1.0594,0,0,0,22,38.96V33.7642l-2-1.64ZM20,38.0223H17V34.7157l1.5049-1.2338L20,34.7079Zm-.208-13.0739a1.9938,1.9938,0,0,0-2.583-.001l-3.5962,3.0363L10,31.0338v11.922a1.998,1.998,0,0,0,2,1.9963H25a1.998,1.998,0,0,0,2-1.9963V31.0339l-3.6127-3.05ZM25,42.9558H12V31.96l2.345-1.98.9087-.7671a1.0379,1.0379,0,0,1,.2684-.2267L16.71,27.9837,18.5,26.4719l1.7905,1.5118,1.1874,1.0024a1.0379,1.0379,0,0,1,.2684.2267l.9087.7671L25,31.96ZM36.1356,31.7619,32,28.3612v-5.81a.7493.7493,0,0,0-.75-.7486h-2a.7647.7647,0,0,0-.75.7486v2.9322l-1.7451-1.435-2.4277-1.9963L20.09,18.5677a2.51,2.51,0,0,0-3.18,0l-4.2373,3.4842-2.4277,1.9963L7,26.7166,5,28.3612.8644,31.7619A.9989.9989,0,1,0,2.1358,33.303L5,30.9477V46.756A3.247,3.247,0,0,0,8.25,50h20.5A3.247,3.247,0,0,0,32,46.756V30.9477l2.8643,2.3553a.9989.9989,0,1,0,1.2714-1.5411ZM30,46.756a1.25,1.25,0,0,1-1.25,1.2477H8.25A1.25,1.25,0,0,1,7,46.756V29.3032l6.3907-5.255,2.4277-1.9963,2.3631-1.9431a.5027.5027,0,0,1,.6368,0l2.3631,1.9431,2.4277,1.9963L30,29.3032Z" fill="#1d1d1f"/><rect width="37" height="54" fill="none"/></svg>