<svg viewBox="0 0 22 54" xmlns="http://www.w3.org/2000/svg"><path d="m0 0h22v54h-22z" fill="none"/><g fill="#1d1d1f"><path d="m20.90438 36.2673a9.8933 9.8933 0 0 0 -3.398-4.81608 2.911 2.911 0 0 0 -1.56778-.529c-1.15134-.11836-2.30637-.22813-3.46241-.26628q-.73836-.02436-1.47815-.02323-.73954-.00006-1.47816.02323c-1.156.03815-2.31107.14792-3.46241.26628a2.911 2.911 0 0 0 -1.56778.529 10.36781 10.36781 0 0 0 -3.3981 4.81608 10.26418 10.26418 0 0 0 -.53313 4.09561 10.43627 10.43627 0 0 0 1.86733 5.31452 10.29906 10.29906 0 0 0 3.66659 3.287 7.25992 7.25992 0 0 0 1.43078.63738 13.03345 13.03345 0 0 0 3.47484.39819 13.03374 13.03374 0 0 0 3.47486-.39823 7.26045 7.26045 0 0 0 1.43075-.63738 10.29906 10.29906 0 0 0 3.66659-3.287 10.43614 10.43614 0 0 0 1.8673-5.31452 9.77427 9.77427 0 0 0 -.53312-4.09557zm-9.90638-3.5862c-3.0624 0-5.545-.37765-5.545-.8435s2.48256-.84349 5.545-.84349 5.54493.37764 5.54493.84349-2.48254.8435-5.54493.8435z"/><ellipse cx="10.99799" cy="31.8376" rx="4.05467" ry=".42654"/></g></svg>