<svg height="54" viewBox="0 0 36 54" width="36" xmlns="http://www.w3.org/2000/svg"><path d="m0 0h36v54h-36z" fill="none"/><path d="m14.0792 49.5a4.0508 4.0508 0 0 1 -.3642-.5h-9.4939c-.0795 0-.3756 0-.46 0a5.382 5.382 0 0 1 -1.3243-.1127 1.8044 1.8044 0 0 1 -.8794-.5037 1.8645 1.8645 0 0 1 -.4664-.9136 6.5821 6.5821 0 0 1 -.091-1.3622v-30.8165c0-.0966 0-.3126 0-.4119a5.9922 5.9922 0 0 1 .1105-1.4307 1.7947 1.7947 0 0 1 .5527-.9339 1.7637 1.7637 0 0 1 .48-.3023 2.305 2.305 0 0 1 .5417-.1509 5.1831 5.1831 0 0 1 .7115-.057c.158-.0038.3419-.0044.518-.0044h1.2829a.7637.7637 0 0 1 .1477.0076.2247.2247 0 0 1 .194.19c.0111.0525.01.3636.0116.41a2.1913 2.1913 0 0 0 .0255.332.9572.9572 0 0 0 .11.3088.9954.9954 0 0 0 .3636.3659 1.01 1.01 0 0 0 .3827.1249 3.0582 3.0582 0 0 0 .4085.013h5.4246a1.4154 1.4154 0 0 0 .7345-.1193v-2.6331h-8.7784-.2854c-.1909 0-.392.0007-.5641.0049a6.2626 6.2626 0 0 0 -.8473.07 3.3074 3.3074 0 0 0 -.7736.2182 2.7593 2.7593 0 0 0 -.7512.4731 2.8044 2.8044 0 0 0 -.8586 1.4349 6.8529 6.8529 0 0 0 -.1414 1.6915v.3987 30.8165a7.4034 7.4034 0 0 0 .1145 1.5772 2.8616 2.8616 0 0 0 .7184 1.3878 2.8141 2.8141 0 0 0 1.3508.7816 6.2852 6.2852 0 0 0 1.573.1456c.0927 0 .3688.0005.4649 0h10.3584a4.0635 4.0635 0 0 1 -.391-.3641c-.0397-.0429-.0719-.0916-.1098-.1359zm-7.3808-36.4637a.4049.4049 0 0 1 -.3764-.1954.411.411 0 0 1 0-.3925.4045.4045 0 0 1 .3763-.1949.3931.3931 0 0 1 0 .7828zm1.238-1.66h3.087a.1253.1253 0 0 1 .1249.1243v.0009.0185a.1254.1254 0 0 1 -.1253.1253h-3.0866a.1253.1253 0 0 1 -.1252-.1253v-.0189-.001a.1252.1252 0 0 1 .1252-.1241zm28.0636-.9847a8.5122 8.5122 0 0 0 -.1265-1.78 3.2515 3.2515 0 0 0 -.7935-1.5651 3.0953 3.0953 0 0 0 -1.4931-.8819 6.8124 6.8124 0 0 0 -1.7385-.1639q-.1658-.0007-.3337-.0007h-12.8487-.3147c-.2113 0-.4338.0008-.6242.0056a6.7554 6.7554 0 0 0 -.9366.0785 3.5957 3.5957 0 0 0 -.855.2461 3.046 3.046 0 0 0 -.83.5342 3.1784 3.1784 0 0 0 -.9489 1.6189 7.8849 7.8849 0 0 0 -.1566 1.9083v1.6086 33.6085a8.5112 8.5112 0 0 0 .1264 1.7794 3.252 3.252 0 0 0 .794 1.5657c.0158.0168.0339.03.05.0461a3.016 3.016 0 0 0 .6192.4911 3.2473 3.2473 0 0 0 .8241.3447c.0931.0248.1889.0273.2829.0451a7.99 7.99 0 0 0 1.4556.1192c.1692.0006.343.0006.5138 0h13.0379a7.747 7.747 0 0 0 1.7772-.1381 3.1267 3.1267 0 0 0 1.5485-.8552 3.2381 3.2381 0 0 0 .8358-1.5824 8.2706 8.2706 0 0 0 .1346-1.8156v-34.7672c0-.1505 0-.3022 0-.4499zm-12.6588-3.88a.13.13 0 0 1 .13-.13h3.0586a.13.13 0 0 1 .13.13v.02a.13.13 0 0 1 -.13.13h-3.0591a.13.13 0 0 1 -.13-.13zm-1.5714.833a.4231.4231 0 0 1 .3936-.2038.4111.4111 0 0 1 0 .8187.4234.4234 0 0 1 -.3936-.2043.43.43 0 0 1 .0002-.411zm13.2302 3.4219v13.7088 21.1528a7.3672 7.3672 0 0 1 -.11 1.5756 2.2292 2.2292 0 0 1 -.5754 1.1037 2.12 2.12 0 0 1 -1.0637.5813 6.94 6.94 0 0 1 -1.547.1113h-13.0392c-.1414 0-.3655 0-.5083 0-.2449-.0011-.4639-.0073-.6771-.019a3.9908 3.9908 0 0 1 -.808-.1111c-.0143-.0037-.0252-.0121-.0393-.0161a2.1038 2.1038 0 0 1 -.98-.5816 2.25 2.25 0 0 1 -.5479-1.0948 7.6827 7.6827 0 0 1 -.1041-1.5687v-33.6087c0-.5141 0-1.11 0-1.6236a6.9907 6.9907 0 0 1 .1265-1.65 2.1915 2.1915 0 0 1 .6494-1.12 2.0526 2.0526 0 0 1 .5588-.3592 2.5994 2.5994 0 0 1 .62-.1764 5.6809 5.6809 0 0 1 .7978-.0653c.1827-.0046.3963-.0053.599-.0053h.1656.1491 1.9507a.8553.8553 0 0 1 .1648.0085.2508.2508 0 0 1 .2166.2118.9056.9056 0 0 1 .0129.1648 2.4437 2.4437 0 0 0 .0284.37 1.0662 1.0662 0 0 0 .1233.3446 1.11 1.11 0 0 0 .4057.4083 1.1282 1.1282 0 0 0 .4271.1394 3.4174 3.4174 0 0 0 .4559.0146h5.0972a3.4184 3.4184 0 0 0 .456-.0146 1.1288 1.1288 0 0 0 .4271-.1394 1.11 1.11 0 0 0 .4055-.4082 1.066 1.066 0 0 0 .1232-.3446 2.4439 2.4439 0 0 0 .0285-.37.8881.8881 0 0 1 .0129-.1648.2508.2508 0 0 1 .2165-.2118.8567.8567 0 0 1 .1649-.0088h2.1313.3288a5.9068 5.9068 0 0 1 1.4852.13 2.1113 2.1113 0 0 1 1.02.5978 2.2494 2.2494 0 0 1 .5477 1.0947 7.6788 7.6788 0 0 1 .104 1.57c-.0004.0675-.0004.3115-.0004.374z" fill="#1d1d1f"/></svg>