<svg id="Outlined" xmlns="http://www.w3.org/2000/svg" width="60" height="54" viewBox="0 0 60 54"><rect width="60" height="54" fill="none"/><path d="M57,10H44a2.9748,2.9748,0,0,0-1.0044.185c0,.0666.0042.14.0042.2046l0,.3769V15H59V45H43v.6264a8.9844,8.9844,0,0,1-.1592,2.018,4.3133,4.3133,0,0,1-.75,1.6521A2.9724,2.9724,0,0,0,44,50H57a3,3,0,0,0,3-3V13A3,3,0,0,0,57,10ZM46.5,12.875a.375.375,0,1,1,.375-.375A.3751.3751,0,0,1,46.5,12.875Zm6.25-.125h-4.5a.25.25,0,0,1,0-.5h4.5a.25.25,0,0,1,0,.5ZM50.5,49.25a1.75,1.75,0,1,1,1.75-1.75A1.75,1.75,0,0,1,50.5,49.25Zm1.13-1.75a1.13,1.13,0,1,1-1.13-1.13A1.1314,1.1314,0,0,1,51.63,47.5ZM42,10.3916a8.52,8.52,0,0,0-.1265-1.78A3.2512,3.2512,0,0,0,41.08,7.0465a3.0955,3.0955,0,0,0-1.4931-.882,6.8172,6.8172,0,0,0-1.7386-.1638Q37.6826,6,37.5146,6H24.666l-.3147,0c-.2113,0-.4338.0008-.6242.0056a6.7541,6.7541,0,0,0-.9366.0785,3.597,3.597,0,0,0-.855.2461,3.046,3.046,0,0,0-.83.5342,3.1779,3.1779,0,0,0-.9489,1.6189A7.89,7.89,0,0,0,20,10.3916c0,.1477,0,.2994,0,.45V45.6087h0a8.5252,8.5252,0,0,0,.1264,1.7794,3.252,3.252,0,0,0,.794,1.5657,3.0976,3.0976,0,0,0,1.4931.8819,6.8131,6.8131,0,0,0,1.7386.1637c4.2057.0013,9.3431,0,13.5517,0a7.7466,7.7466,0,0,0,1.7772-.1381,3.1264,3.1264,0,0,0,1.5484-.8552,3.2366,3.2366,0,0,0,.8359-1.5824A8.2706,8.2706,0,0,0,42,45.6087h0V10.8415C42,10.6909,42,10.5393,42,10.3916ZM29.3411,6.5111a.13.13,0,0,1,.13-.13h3.0587a.13.13,0,0,1,.13.13v.02a.13.13,0,0,1-.13.13H29.4707a.13.13,0,0,1-.13-.13ZM27.77,7.3442a.4231.4231,0,0,1,.3936-.2038.4111.4111,0,0,1,0,.8187.4234.4234,0,0,1-.3936-.2044A.43.43,0,0,1,27.77,7.3442ZM41,10.7665v.075l0,34.787a7.3677,7.3677,0,0,1-.11,1.5751,2.2283,2.2283,0,0,1-.5754,1.1037,2.12,2.12,0,0,1-1.0637.5813A6.9458,6.9458,0,0,1,37.7039,49H24.6647c-.125,0-.3811,0-.5083,0a5.897,5.897,0,0,1-1.4851-.13,2.11,2.11,0,0,1-1.0194-.5977,2.2506,2.2506,0,0,1-.548-1.0947A7.6854,7.6854,0,0,1,21,45.6087V10.8415c0-.1111,0-.3514,0-.4654a6.9914,6.9914,0,0,1,.1266-1.65,2.19,2.19,0,0,1,.6494-1.12,2.0512,2.0512,0,0,1,.5587-.3592,2.6062,2.6062,0,0,1,.62-.1765,5.6828,5.6828,0,0,1,.7978-.0652c.1827-.0047.3963-.0053.599-.0053l.1656,0,.1491,0h1.9507a.8553.8553,0,0,1,.1648.0085.2505.2505,0,0,1,.2165.2118.8968.8968,0,0,1,.013.1647,2.444,2.444,0,0,0,.0284.3706,1.0662,1.0662,0,0,0,.1233.3446,1.11,1.11,0,0,0,.4057.4083,1.1277,1.1277,0,0,0,.4271.1394,3.4168,3.4168,0,0,0,.4559.0145h5.0972a3.4182,3.4182,0,0,0,.456-.0145,1.1278,1.1278,0,0,0,.427-.1394A1.11,1.11,0,0,0,34.8374,8.1a1.066,1.066,0,0,0,.1232-.3446,2.4442,2.4442,0,0,0,.0285-.3706.8877.8877,0,0,1,.0129-.1647.2508.2508,0,0,1,.2165-.2118A.8559.8559,0,0,1,35.3834,7h2.1312l.3289,0a5.9081,5.9081,0,0,1,1.4853.13,2.1093,2.1093,0,0,1,1.0194.5979,2.249,2.249,0,0,1,.5477,1.0946,7.6763,7.6763,0,0,1,.104,1.57C41,10.4652,41,10.6986,41,10.7665ZM19,45.6087V10.7665l0-.3883a8.7426,8.7426,0,0,1,.1863-2.1374,4.19,4.19,0,0,1,.9722-1.828,3.3971,3.3971,0,0,0-.6055-.2459,4.6976,4.6976,0,0,0-.8965-.1429C18.33,6.0006,18.002,6,17.6084,6H4.3914c-.3936,0-.7212.0007-1.0481.0241a4.7021,4.7021,0,0,0-.8968.1429A3.1468,3.1468,0,0,0,.167,8.4466a4.701,4.701,0,0,0-.1431.8966C.0005,9.67,0,9.9978,0,10.3913V45.6086c0,.3935.0005.7213.0239,1.0482a4.6987,4.6987,0,0,0,.1431.8965,3.1463,3.1463,0,0,0,2.28,2.28,4.71,4.71,0,0,0,.8968.143c.3269.0234.6545.024,1.0481.024h13.217c.3936,0,.7214-.0006,1.0483-.024a4.7054,4.7054,0,0,0,.8965-.143,3.39,3.39,0,0,0,.5987-.2431,4.2584,4.2584,0,0,1-1.003-1.9906A9.4371,9.4371,0,0,1,19,45.6087ZM11.75,15.5172a2.9191,2.9191,0,0,1-.6547,1.6319,2.7734,2.7734,0,0,1-1.2786.8263,13.2429,13.2429,0,0,1-2.9468.1508A18.4973,18.4973,0,0,1,3.2112,17.97a2.7516,2.7516,0,0,1-1.4446-1.06c-.0371-.0718-.0979-.1478-.13-.2234l-.0105-.01c-.0015-.0068-.0025-.0214-.01-.0207-.0014-.0068-.0027-.0215-.01-.0208,0-.005.0019-.0124-.0054-.01-.0142-.0421-.0337-.0627-.0469-.104a5.4792,5.4792,0,0,1-.2856-2.3283c.018-1.4569-.0413-2.9826.031-4.3968a3.2288,3.2288,0,0,1,.2236-.868,2.6637,2.6637,0,0,1,1.346-1.3928,4.3086,4.3086,0,0,1,1.83-.291c1.49.0159,3.0354-.0373,4.49.0311a3.1253,3.1253,0,0,1,1.0083.27,2.7165,2.7165,0,0,1,.9978.8,3.0242,3.0242,0,0,1,.4.7588,4.5722,4.5722,0,0,1,.1822,1.4655C11.7593,12.2151,11.8132,13.8835,11.75,15.5172ZM3.8921,8.0124A1.98,1.98,0,1,0,5.103,11.6453,1.9827,1.9827,0,0,0,3.8921,8.0124ZM8.897,10.663a2.0214,2.0214,0,1,0,1.2473,3.6952A2.0278,2.0278,0,0,0,8.897,10.663ZM3.9753,13.3915A1.976,1.976,0,1,0,5.7111,16.38,1.9813,1.9813,0,0,0,3.9753,13.3915Z" fill="#1d1d1f"/></svg>