<svg height="54" viewBox="0 0 38 54" width="38" xmlns="http://www.w3.org/2000/svg"><path d="m0 0h38v54h-38z" fill="none"/><path d="m38 6.7828a9.2369 9.2369 0 0 0 -.1385-1.938 3.5344 3.5344 0 0 0 -.87-1.7051 3.3946 3.3946 0 0 0 -1.6353-.9605 7.5013 7.5013 0 0 0 -1.9041-.1784q-.1766-.0008-.3564-.0008h-12.9857-.3459c-.231 0-.4744.0009-.6825.0061a7.4466 7.4466 0 0 0 -1.0257.0855 3.9612 3.9612 0 0 0 -.9365.268 3.34 3.34 0 0 0 -.909.5818 3.4569 3.4569 0 0 0 -1.0393 1.7631 6.1645 6.1645 0 0 0 -.1584 1.2955c-.0057.1672-.01.3338-.0108.5006-.0019.2581-.0019.5141-.0019.7722v37.9447a9.2162 9.2162 0 0 0 .1383 1.9379 3.5341 3.5341 0 0 0 .87 1.7052c.0477.0508.1012.0922.1512.1393a3.2926 3.2926 0 0 0 .6841.5 3.5936 3.5936 0 0 0 .8.3211 5.268 5.268 0 0 0 1.0116.1532c.2968.0195.5951.024.8925.0252.1854.0008.3757.0007.5628 0h13.1842a8.5281 8.5281 0 0 0 1.9464-.15 3.43 3.43 0 0 0 1.696-.9314 3.5183 3.5183 0 0 0 .9154-1.7234 8.9628 8.9628 0 0 0 .1475-1.9771v-37.9447c0-.164 0-.3291 0-.49zm-13.968-3.3337a.403.403 0 0 1 -.3635.3986.4124.4124 0 0 1 -.3833-.199.4184.4184 0 0 1 0-.4.4119.4119 0 0 1 .3833-.1985.4029.4029 0 0 1 .3635.3989zm.768-.8641a.133.133 0 0 1 .1328-.1329h3.0845a.1329.1329 0 0 1 .1328.1329v.0208a.1329.1329 0 0 1 -.1328.1328h-3.0842a.1329.1329 0 0 1 -.1331-.1328zm12.2 4.6061v14.93 23.1174a8.037 8.037 0 0 1 -.1224 1.7345 2.5073 2.5073 0 0 1 -.6532 1.2439 2.42 2.42 0 0 1 -1.2121.6591 7.7069 7.7069 0 0 1 -1.7176.124h-12.2595c-.4089 0-1.0815.0005-1.4835 0-.3324-.0014-.6328-.0081-.9156-.03a4.1076 4.1076 0 0 1 -.7363-.1148 2.4078 2.4078 0 0 1 -1.1622-.6779 2.53 2.53 0 0 1 -.6218-1.2333 8.374 8.374 0 0 1 -.1158-1.7265v-37.9447c0-.2541-.0016-.5187.0054-.7719.001-.1694.0036-.3373.01-.5007a5.1426 5.1426 0 0 1 .126-1.0515 2.4688 2.4688 0 0 1 .7381-1.2636 2.34 2.34 0 0 1 .6379-.4078 2.958 2.958 0 0 1 .702-.1991 6.3709 6.3709 0 0 1 .8878-.0724c.1836-.0046.3967-.0051.602-.0053h2.23a.9334.9334 0 0 1 .1808.0095.2961.2961 0 0 1 .1575.0761.254.254 0 0 1 .08.1559c.0113.072.02.3109.0453.4524a1.1682 1.1682 0 0 0 .1351.3775 1.216 1.216 0 0 0 .4444.4473 1.2345 1.2345 0 0 0 .4678.1528 3.7519 3.7519 0 0 0 .5.0158h5.1014a3.7519 3.7519 0 0 0 .5-.0158 1.2351 1.2351 0 0 0 .4678-.1528 1.2163 1.2163 0 0 0 .4445-.4473 1.168 1.168 0 0 0 .135-.3775 3.5351 3.5351 0 0 0 .0312-.4059.2543.2543 0 0 1 .0938-.2024.2961.2961 0 0 1 .1562-.0761.9341.9341 0 0 1 .1806-.0093h2.1918.1957a6.5763 6.5763 0 0 1 1.6523.145 2.4074 2.4074 0 0 1 1.1621.678 2.5288 2.5288 0 0 1 .6217 1.2332 8.3783 8.3783 0 0 1 .1158 1.7277zm-21.7212 42.3536c-.0133-.0142-.0234-.0306-.0365-.0449a4.3209 4.3209 0 0 1 -.3916-.5h-10.186c-.1211 0-.3839 0-.5083 0a5.8933 5.8933 0 0 1 -1.4852-.13 2.11 2.11 0 0 1 -1.0194-.5977 2.25 2.25 0 0 1 -.5478-1.0951 7.6771 7.6771 0 0 1 -.104-1.5683v-34.7672c0-.1118 0-.3507 0-.4653a6.9868 6.9868 0 0 1 .1265-1.65 2.19 2.19 0 0 1 .65-1.12 2.05 2.05 0 0 1 .5586-.3592 2.6007 2.6007 0 0 1 .62-.1764 5.6812 5.6812 0 0 1 .7979-.0653c.182-.0046.3955-.0053.5983-.0053h.1656.1491 1.9507a.8557.8557 0 0 1 .1648.0085.2508.2508 0 0 1 .2165.2118.8972.8972 0 0 1 .013.1648 2.4437 2.4437 0 0 0 .0284.37 1.0684 1.0684 0 0 0 .1232.3449 1.11 1.11 0 0 0 .4058.4083 1.1277 1.1277 0 0 0 .4271.1394 3.4164 3.4164 0 0 0 .4559.0146h5.0972a3.4667 3.4667 0 0 0 .4514-.014v-1.3755c0-.2553-.0006-.516.0021-.7721.0008-.1637.0049-.33.0105-.5h-9.3466l-.3147-.0007c-.2112 0-.4338.0008-.6242.0056a6.7541 6.7541 0 0 0 -.9366.0785 3.5957 3.5957 0 0 0 -.855.2461 3.0445 3.0445 0 0 0 -.83.5342 3.1768 3.1768 0 0 0 -.9488 1.6189 7.8849 7.8849 0 0 0 -.1567 1.9083v.45 34.7671a8.5247 8.5247 0 0 0 .1264 1.7794 3.252 3.252 0 0 0 .794 1.5657 3.0968 3.0968 0 0 0 1.4931.8819 6.8119 6.8119 0 0 0 1.7386.1643c.1693.0006.3431.0006.5139 0h11.118a4.3219 4.3219 0 0 1 -.5052-.4553zm-5.9377-43.0335a.13.13 0 0 1 .13-.13h3.0586a.13.13 0 0 1 .13.13v.02a.13.13 0 0 1 -.13.13h-3.059a.13.13 0 0 1 -.13-.13zm-1.5711.833a.423.423 0 0 1 .3933-.2042.4111.4111 0 0 1 0 .8187.4236.4236 0 0 1 -.3937-.2043.43.43 0 0 1 .0004-.4102z" fill="#1d1d1f"/></svg>