<svg xmlns="http://www.w3.org/2000/svg" viewBox="0 0 36 54"><title>iphone12_elevated_light</title><rect width="36" height="54" fill="none"/><path d="M9.24,11.28952h2a.2535.2535,0,0,1,0,.50695h-2a.2535.2535,0,0,1,0-.50695Zm3.08-.08111a.33462.33462,0,1,1-.33.33459.337.337,0,0,1,.1002-.24025.32737.32737,0,0,1,.2398-.09434ZM3.19,49A2.064,2.064,0,0,1,1,47.12V12.83474a2.04179,2.04179,0,0,1,2.19-1.85036H5a.46619.46619,0,0,1,.5.42246v.72572A.9493.9493,0,0,0,6.5,13H13V10H3.19A2.98357,2.98357,0,0,0,0,12.69528V47.14375a3.103,3.103,0,0,0,3.19,2.85037H14.38A2.405,2.405,0,0,1,13.44733,49Zm31.83273-1.87976A1.9406,1.9406,0,0,1,33.06818,49H16.93182A1.9203,1.9203,0,0,1,15,47.12024V8.81818A1.86965,1.86965,0,0,1,16.93182,7H19.625a.47255.47255,0,0,1,.48864.45455v.61637A.96132.96132,0,0,0,21.09091,9h7.81818a.96131.96131,0,0,0,.97727-.92908V7.45455A.47255.47255,0,0,1,30.375,7h2.69318a1.89,1.89,0,0,1,1.95455,1.81818ZM24.38218,7.25578h1.977a.25.25,0,0,1,0,.5h-1.977a.25.25,0,0,1,0-.5Zm3.0446-.08a.33.33,0,1,1-.32621.33A.32811.32811,0,0,1,27.42678,7.17577ZM33.06818,6H16.93182A2.84037,2.84037,0,0,0,14,8.73913V47.19929a2.8859,2.8859,0,0,0,2.93182,2.79483H33.06818A2.8859,2.8859,0,0,0,36,47.19929V8.73913A2.84036,2.84036,0,0,0,33.06818,6Z" fill="#1d1d1f"/></svg>