<svg xmlns="http://www.w3.org/2000/svg" viewBox="0 0 35 54"><title>case.iphone.2_elevated_light</title><rect width="35" height="54" fill="none"/><path d="M30.177,20H17.823A1.87013,1.87013,0,0,0,16,21.91V45.09A1.8702,1.8702,0,0,0,17.82306,47H30.17694A1.8702,1.8702,0,0,0,32,45.09V21.91A1.87013,1.87013,0,0,0,30.177,20Z" fill="#1d1d1f"/><path d="M11.99982,46.12689l.00012-36.19031A4.84076,4.84076,0,0,1,16.88214,5h7.38764a3.93448,3.93448,0,0,0-3.76984-3H3.9A3.9,3.9,0,0,0,0,5.9V46.09991a3.9,3.9,0,0,0,3.9,3.9H13.92078A4.72492,4.72492,0,0,1,11.99982,46.12689ZM10,9.5A2.5,2.5,0,0,1,7.5,12h-3A2.5,2.5,0,0,1,2,9.5v-3A2.5,2.5,0,0,1,4.5,4h3A2.5,2.5,0,0,1,10,6.5Z" fill="#1d1d1f"/><path d="M31.11713,6.00964H16.88293a3.8828,3.8828,0,0,0-3.88281,3.88282L13,46.11713a3.88282,3.88282,0,0,0,3.88281,3.88281H31.118A3.88458,3.88458,0,0,0,35,46.10077V9.90967A3.88542,3.88542,0,0,0,31.11713,6.00964ZM15,10.5A2.5,2.5,0,0,1,17.5,8h3A2.5,2.5,0,0,1,23,10.5v3A2.5,2.5,0,0,1,20.5,16h-3A2.5,2.5,0,0,1,15,13.5ZM33,45.09A2.86753,2.86753,0,0,1,30.17694,48H17.82306A2.86753,2.86753,0,0,1,15,45.09V21.91A2.86746,2.86746,0,0,1,17.823,19H30.177A2.86746,2.86746,0,0,1,33,21.91Z" fill="#1d1d1f"/></svg>