<svg xmlns="http://www.w3.org/2000/svg" viewBox="0 0 27 54">
  <defs>
    <style>
      .a {
        fill: none;
      }

      .b {
        fill: #1d1d1f;
      }
    </style>
  </defs>
  <title>airpods_large_</title>
  <g>
    <rect class="a" width="27" height="54"/>
    <path class="b" d="M5.871,22.49c-2.38.09-3.89,1.59-5.29,3.06-.6.66-.48,1.14-.48,2.51,0,1.85,0,2.07.5,2.87A6.359,6.359,0,0,0,5.871,34c3.62.27,6.74-2.57,6.74-5.75S9.491,22.36,5.871,22.49ZM2.781,30a.6.6,0,0,1-1.19,0V26.58a.6.6,0,0,1,1.19,0Zm6.71-1.72a.889.889,0,0,1-.9.88H6.651a.89.89,0,0,1-.9-.88h0v-.11a.89.89,0,0,1,.9-.88H8.6a.889.889,0,0,1,.9.88h0Zm-3,6.92V48.67A1.53,1.53,0,0,0,7.861,50h1.61a1.581,1.581,0,0,0,1.45-1.51v-.2h0V34a6.941,6.941,0,0,1-4.45,1.22Zm20-9.72c-1.4-1.47-3-2.92-5.35-3-3.62-.13-6.72,2.59-6.72,5.78a6.19,6.19,0,0,0,6.529,5.832l.031,0a6.688,6.688,0,0,0,5.38-3.2c.54-.8.5-1,.5-2.87.04-1.38.2-1.86-.43-2.52Zm-5.23,2.8a.889.889,0,0,1-.9.88h-2a.89.89,0,0,1-.9-.88h0v-.11a.89.89,0,0,1,.9-.88H20.3a.889.889,0,0,1,.9.88h0ZM25.341,30a.6.6,0,0,1-1.19,0V26.59a.595.595,0,1,1,1.19,0h0Zm-9.36,4V48.26h0v.2A1.57,1.57,0,0,0,17.491,50h1.6a1.52,1.52,0,0,0,1.39-1.31V35.21A6.9,6.9,0,0,1,15.981,34Z"/>
  </g>
</svg>
