<svg xmlns="http://www.w3.org/2000/svg" viewBox="0 0 22 54">
  <defs>
    <style>
      .a {
        fill: #1d1d1f;
      }
    </style>
  </defs>
  <title>iphone_11_large_</title>
  <path class="a" d="M18.81,6H3.19A3.2,3.2,0,0,0,0,9.22V46.83A3.2,3.2,0,0,0,3.19,50H18.81A3.2,3.2,0,0,0,22,46.83V9.22A3.2,3.2,0,0,0,18.81,6ZM13.08,7.17a.33.33,0,1,1-.33.33A.33.33,0,0,1,13.08,7.17ZM10,7.25h2a.25.25,0,0,1,0,.5H10a.25.25,0,0,1,0-.5ZM21,46.83A2.19,2.19,0,0,1,18.81,49H3.19A2.19,2.19,0,0,1,1,46.83V9.22A2.19,2.19,0,0,1,3.19,7H5.5a.5.5,0,0,1,.5.5V8A1,1,0,0,0,7,9h8a1,1,0,0,0,1-1v-.5a.5.5,0,0,1,.5-.5h2.31A2.19,2.19,0,0,1,21,9.22Z"/>
</svg>
