<?xml version="1.0" encoding="UTF-8"?>
<svg width="120px" height="120px" viewBox="0 0 120 120" version="1.1" xmlns="http://www.w3.org/2000/svg" xmlns:xlink="http://www.w3.org/1999/xlink">
    <title>info</title>
    <g id="info" stroke="none" stroke-width="1" fill="none" fill-rule="evenodd">
        <g id="􀅴" transform="translate(21.000000, 21.000000)" fill="#000000" fill-rule="nonzero">
            <path d="M39,78 C60.3352941,78 78,60.2970588 78,39 C78,17.6647059 60.2970588,0 38.9617647,0 C17.6647059,0 0,17.6647059 0,39 C0,60.2970588 17.7029412,78 39,78 Z M39,71.5 C20.9529412,71.5 6.53823529,57.0470588 6.53823529,39 C6.53823529,20.9529412 20.9147059,6.5 38.9617647,6.5 C57.0088235,6.5 71.4617647,20.9529412 71.5000755,39 C71.5382353,57.0470588 57.0470588,71.5 39,71.5 Z M38.6558824,25.3882353 C41.4470588,25.3882353 43.6264706,23.1705882 43.6264706,20.3794118 C43.6264706,17.5882353 41.4470588,15.3705882 38.6558824,15.3705882 C35.9029412,15.3705882 33.6852941,17.5882353 33.6852941,20.3794118 C33.6852941,23.1705882 35.9029412,25.3882353 38.6558824,25.3882353 Z M32.3088235,60.0294118 L47.8705882,60.0294118 C49.4382353,60.0294118 50.6617647,58.8823529 50.6617647,57.3147059 C50.6617647,55.8235294 49.4382353,54.6382353 47.8705882,54.6382353 L43.1294118,54.6382353 L43.1294118,35.1764706 C43.1294118,33.1117647 42.0970588,31.7352941 40.1470588,31.7352941 L32.9588235,31.7352941 C31.3911765,31.7352941 30.1676471,32.9205882 30.1676471,34.4117647 C30.1676471,35.9794118 31.3911765,37.1264706 32.9588235,37.1264706 L37.05,37.1264706 L37.05,54.6382353 L32.3088235,54.6382353 C30.7411765,54.6382353 29.5176471,55.8235294 29.5176471,57.3147059 C29.5176471,58.8823529 30.7411765,60.0294118 32.3088235,60.0294118 Z" id="Shape"></path>
        </g>
    </g>
</svg>