<?xml version="1.0" encoding="UTF-8"?>
<svg width="120px" height="120px" viewBox="0 0 120 120" version="1.1" xmlns="http://www.w3.org/2000/svg" xmlns:xlink="http://www.w3.org/1999/xlink">
    <title>airpods</title>
    <g id="airpods" stroke="none" stroke-width="1" fill="none" fill-rule="evenodd">
        <g id="Group" transform="translate(14.000000, 14.000000)" fill="#000000" fill-rule="nonzero">
            <path d="M72.8264171,35.2432005 C82.1953269,35.1128311 88.0781308,29.4634895 90.6927103,25.4220374 C91.5642368,24.0314302 92,22.5104536 92,20.8156511 L92,14.4275494 C92,12.7327469 91.6078131,11.2117703 90.6927103,9.82116316 C87.9909781,5.77971106 82.1953269,0 72.8264171,0 C62.6295571,0 54.1321738,7.9090783 54.0014448,17.5564156 C53.8707159,27.3341222 62.6295571,35.3301135 72.8264171,35.2432005 Z M83.8058488,25.9146341 C82.5702069,25.9146341 81.6876056,24.9562816 81.6876056,23.7241141 L81.6876056,13.592959 C81.6876056,12.3607915 82.5702069,11.402439 83.8058488,11.402439 C84.9532306,11.402439 85.879962,12.3607915 85.879962,13.592959 L85.879962,23.7241141 C85.879962,24.9562816 84.9532306,25.9146341 83.8058488,25.9146341 Z M71.4594595,69.4512195 L71.4594595,38.8807786 C66.8706153,38.5377722 62.5876941,36.8227405 59.1351351,34.2073171 L59.1351351,69.4512195 L71.4594595,69.4512195 Z M67.1765382,85 C69.7550316,85 71.4594595,83.6479321 71.4594595,80.9888653 L71.4594595,74.6341463 L59.1351351,74.6341463 L59.1351351,80.9888653 C59.1351351,83.6479321 60.7958597,85 63.4617596,85 L67.1765382,85 Z" id="Shape"></path>
            <g id="Зђфи" transform="translate(0.000000, 23.000000)">
                <path d="M31.8542945,0.00122214184 C25.8220859,-0.0688725759 19.0843558,2.87510557 14.6042945,9.11353545 C13.9340491,9.95467206 13.3343558,10.9009508 12.6993865,12.3028451 C20.3542945,13.6696921 26.5628834,20.398785 26.5628834,27.8989198 C26.5628834,30.0368087 26.1395706,31.9994608 25.398773,33.7518287 C30.0552147,33.0859289 32.9478528,32.0345082 35.5935583,30.5625191 C41.4141104,27.23302 46,21.8357267 46,14.0902604 C46,5.1531839 39.6503067,0.0713168596 31.8542945,0.00122214184 Z M33.2300613,15.0365391 C32.5245399,15.6323442 31.4309816,15.5622495 30.8312883,14.8262549 C30.2315951,14.0902604 30.3374233,13.0388396 31.0782209,12.4430345 L36.2638037,8.09716204 C36.9693252,7.50135694 38.0276074,7.60649902 38.5920245,8.34249356 C39.2269939,9.04344073 39.1917178,10.0948615 38.4509202,10.6906666 L33.2300613,15.0365391 Z M12.8404908,38.0626539 C18.3082822,38.0626539 23.1763804,34.6981074 23.1763804,27.8989198 C23.1763804,21.8357267 17.4263804,15.42206 9.94785276,15.42206 C3.63343558,15.42206 0,20.398785 0,25.480652 C0,33.0859289 6.52607362,38.0626539 12.8404908,38.0626539 Z M11.0766871,32.7354553 C10.0889571,33.6116393 8.39570552,32.7354553 6.31441718,30.2470929 C4.26840491,27.7587304 3.7392638,26.0414098 4.72699387,25.2002732 C5.75,24.2890418 7.40797546,25.1301785 9.52453988,27.6535883 C11.5352761,30.2120455 12.0644172,31.8943187 11.0766871,32.7354553 Z M26.7745399,62 L29.5613497,62 C31.7131902,62 33.1595092,60.8784845 33.1595092,58.7055483 L33.1595092,35.6093388 C30.1610429,36.6958069 26.809816,37.3617067 23.1411043,37.6070382 L23.1411043,58.7055483 C23.1411043,60.8784845 24.5874233,62 26.7745399,62 Z" id="Shape"></path>
            </g>
        </g>
    </g>
</svg>