<svg height="120" viewBox="0 0 120 120" width="120" xmlns="http://www.w3.org/2000/svg"><g fill="none" fill-rule="evenodd" transform="translate(20.904785 21.459473)"><path d="m39 78c5.3399801 0 10.3624128-1.0174477 15.0672981-3.052343s8.8459621-4.8474576 12.4232303-8.4376869 6.3898305-7.7377867 8.437687-12.442672c2.0478564-4.7048853 3.0717846-9.727318 3.0717846-15.0672981s-1.0239282-10.3624128-3.0717846-15.0672981c-2.0478565-4.7048853-4.8604188-8.8524427-8.437687-12.442672s-7.7248255-6.40279161-12.442672-8.43768693c-4.7178464-2.03489531-9.7467597-3.05234297-15.0867397-3.05234297-5.3399801 0-10.3624128 1.01744766-15.0672982 3.05234297-4.7048853 2.03489532-8.8459621 4.84745763-12.4232303 8.43768693-3.57726816 3.5902293-6.38334991 7.7377867-8.41824523 12.442672-2.03489531 4.7048853-3.05234297 9.727318-3.05234297 15.0672981s1.01744766 10.3624128 3.05234297 15.0672981c2.03489532 4.7048853 4.84745763 8.8524427 8.43768693 12.442672s7.7377867 6.4027916 12.442672 8.4376869 9.727318 3.052343 15.0672981 3.052343zm0-5.0159521c-4.7178465 0-9.1246261-.881356-13.220339-2.6440678-4.0957128-1.7627119-7.6989033-4.1994018-10.8095713-7.3100698s-5.54087734-6.720339-7.29062808-10.829013c-1.74975075-4.108674-2.62462613-8.5089731-2.62462613-13.2008973s.87487538-9.0922233 2.62462613-13.2008973c1.74975074-4.108674 4.17347958-7.7248255 7.27118648-10.8484546 3.0977068-3.1236292 6.7008973-5.56031909 10.8095712-7.31006983 4.108674-1.74975075 8.5089731-2.62462613 13.2008974-2.62462613 4.7178464 0 9.1246261.87487538 13.2203389 2.62462613 4.0957129 1.74975074 7.7053839 4.18644063 10.829013 7.31006983 3.1236291 3.1236291 5.5667996 6.7397806 7.3295115 10.8484546 1.7627118 4.108674 2.6440678 8.5089731 2.6440678 13.2008973s-.8748754 9.0922233-2.6246262 13.2008973c-1.7497507 4.108674-4.1799601 7.718345-7.2906281 10.829013s-6.7268195 5.5473579-10.8484546 7.3100698c-4.1216351 1.7627118-8.5284148 2.6440678-13.220339 2.6440678z" fill="#000" fill-rule="nonzero"/><g stroke="#000"><path d="m27.1003398 18.8831283c-6.950946 4.0847044-11.6168629 11.6400799-11.6168629 20.2852386 0 12.9851743 10.5265637 23.511738 23.5117379 23.511738 12.9851743 0 23.511738-10.5265637 23.511738-23.511738 0-8.7904732-4.8240918-16.4542193-11.9692989-20.488262" stroke-width="4.2"/><circle cx="38.995215" cy="39.040527" r="9.4" stroke-width="4.2"/><path d="m55.07586 30.040527-11.480645-19.681105" stroke-linecap="square" stroke-width="4" transform="matrix(-1 .00000002 .00000002 1 98.671074 -.000001)"/><path d="m33.595215 30.040527-11.480645-19.681105" stroke-linecap="square" stroke-width="4"/></g></g></svg>