<?xml version="1.0" encoding="UTF-8"?>
<svg width="120px" height="120px" viewBox="0 0 120 120" version="1.1" xmlns="http://www.w3.org/2000/svg" xmlns:xlink="http://www.w3.org/1999/xlink">
    <title>apple id copy 10</title>
    <g id="apple-id-copy-10" stroke="none" stroke-width="1" fill="none" fill-rule="evenodd">
        <g id="􀊬" transform="translate(24.000000, 24.000000)" fill="#000000" fill-rule="nonzero">
            <path d="M0,28.725964 C0,32.6745501 0.743037537,36.3825193 2.22911261,39.8498715 C3.71518768,43.3172237 5.77235772,46.3712082 8.40062273,49.0118252 C11.0288877,51.6524422 14.0685867,53.7192802 17.5197198,55.2123393 C20.9708528,56.7053985 24.6614773,57.451928 28.5915931,57.451928 C31.8093755,57.451928 34.8797786,56.9336761 37.8028023,55.8971722 C40.725826,54.8606684 43.3786542,53.4293059 45.761287,51.6030848 L64.9574468,70.9634961 C65.3013319,71.2843188 65.6882027,71.5372751 66.1180592,71.722365 C66.5479156,71.907455 67.008476,72 67.4997405,72 C68.1875108,72 68.7954506,71.8395887 69.3235599,71.5187661 C69.8516693,71.1979434 70.2631033,70.7598972 70.557862,70.2046272 C70.8526207,69.6493573 71,69.0508997 71,68.4092545 C71,67.9156812 70.9140287,67.459126 70.7420861,67.0395887 C70.5701436,66.6200514 70.3122297,66.2498715 69.9683446,65.9290488 L50.8827193,46.6056555 C52.8477772,44.1871465 54.3891195,41.4478149 55.5067462,38.3876607 C56.6243729,35.3275064 57.1831863,32.1069409 57.1831863,28.725964 C57.1831863,24.7773779 56.4401488,21.0632391 54.9540737,17.5835476 C53.4679986,14.103856 51.4108286,11.0498715 48.7825636,8.42159383 C46.1542986,5.7933162 43.1145996,3.73264781 39.6634665,2.23958869 C36.2123335,0.746529563 32.521709,0 28.5915931,0 C24.6614773,0 20.9708528,0.746529563 17.5197198,2.23958869 C14.0685867,3.73264781 11.0288877,5.7933162 8.40062273,8.42159383 C5.77235772,11.0498715 3.71518768,14.103856 2.22911261,17.5835476 C0.743037537,21.0632391 0,24.7773779 0,28.725964 Z M4.78982875,28.725964 C4.78982875,25.4190231 5.40390936,22.3218509 6.63207058,19.4344473 C7.86023179,16.5470437 9.56737589,14.0051414 11.7535029,11.8087404 C13.9396298,9.61233933 16.4696419,7.89100257 19.3435392,6.64473008 C22.2174364,5.39845758 25.3001211,4.77532134 28.5915931,4.77532134 C31.8830652,4.77532134 34.9657499,5.39845758 37.8396471,6.64473008 C40.7135444,7.89100257 43.2374157,9.61233933 45.411261,11.8087404 C47.5851064,14.0051414 49.2922505,16.5470437 50.5326933,19.4344473 C51.7731361,22.3218509 52.3933576,25.4190231 52.3933576,28.725964 C52.3933576,32.0082262 51.7731361,35.0992288 50.5326933,37.9989717 C49.2922505,40.8987147 47.5851064,43.440617 45.411261,45.6246787 C43.2374157,47.8087404 40.7135444,49.5239075 37.8396471,50.7701799 C34.9657499,52.0164524 31.8830652,52.6395887 28.5915931,52.6395887 C25.3001211,52.6395887 22.2174364,52.0164524 19.3435392,50.7701799 C16.4696419,49.5239075 13.9396298,47.8087404 11.7535029,45.6246787 C9.56737589,43.440617 7.86023179,40.8987147 6.63207058,37.9989717 C5.40390936,35.0992288 4.78982875,32.0082262 4.78982875,28.725964 Z" id="Shape"></path>
        </g>
    </g>
</svg>