<svg height="54" viewBox="0 0 72 54" width="72" xmlns="http://www.w3.org/2000/svg"><path d="m0 0h72v54h-72z" fill="none"/><path d="m48 50v-7.5h2.8815a1.215 1.215 0 0 0 2.237 0h2.8815v7.48zm24-29.5v20a1.5 1.5 0 0 1 -1.5 1.5h-37a1.5 1.5 0 0 1 -1.5-1.5v-20a1.5 1.5 0 0 1 1.5-1.5h37a1.5 1.5 0 0 1 1.5 1.5zm-2 .5h-36v19h36zm-39 19.1738a4.3939 4.3939 0 0 0 .0813.8262h-29.5524c-.05-.0028-.1009-.0081-.1509-.0157a1.6184 1.6184 0 0 1 -1.3595-1.8421v-23.4335a1.5081 1.5081 0 0 1 1.54-1.7081h43.0115c.97 0 1.43.7592 1.43 1.7081v2.2913h-2v-2h-42v23h29zm-14 9.8262h12v-8.5h-12z" fill="#1d1d1f"/></svg>