<svg xmlns="http://www.w3.org/2000/svg" viewBox="0 0 33 54">
  <defs>
    <style>
      .a {
        fill: #1d1d1f;
      }
    </style>
  </defs>
  <title>mac_accessories_large_</title>
  <path class="a" d="M30.021,46.5v-8a3.009,3.009,0,0,0-3-3h0a3.009,3.009,0,0,0-3,3v8a3.009,3.009,0,0,0,3,3h0A3.009,3.009,0,0,0,30.021,46.5Zm-24.041,3h0a3.009,3.009,0,0,0,3-3v-8a3.009,3.009,0,0,0-3-3h0a3.009,3.009,0,0,0-3,3v8A3.009,3.009,0,0,0,5.979,49.5ZM16.5,21.25C24.357,21.25,31,28.61,31,37v9.516h1.5V37c0-9.189-7.344-17.25-16-17.25S.5,27.811.5,37v9.516H2V37C2,28.61,8.643,21.25,16.5,21.25Z"/>
</svg>
